<svg width="40" height="40" viewBox="0 0 40 40" fill="none" xmlns="http://www.w3.org/2000/svg">
<rect width="40" height="40" fill="#2F2F33"/>
<g id="Hist&#195;&#179;rico">
<rect width="1440" height="904" transform="translate(-200 -128)" fill="#121214"/>
<g id="Frame 7183">
<rect x="-40" y="-48" width="1120" height="740" rx="8" fill="#202024"/>
<g id="Frame 7187">
<g id="Logo">
<path id="Vector" opacity="0.5" d="M39.99 0.270225L30.2033 36.8334C30.1535 36.9993 29.9545 37.0491 29.8383 36.9329L23.2862 30.3771L28.1962 12.0541C28.2459 11.8881 28.0966 11.7387 27.9308 11.7885L9.6179 16.7012L3.09893 10.1786C2.98281 10.0624 3.03258 9.86327 3.19845 9.81348L39.7246 0.00467392C39.8905 -0.02852 40.0398 0.120853 39.99 0.270225Z" fill="#00B37E"/>
<path id="Vector_2" opacity="0.5" d="M23.2861 30.3768L20.7648 39.8371C20.715 40.0031 20.516 40.0529 20.3998 39.9367L0.0632817 19.6054C-0.0528324 19.4892 -0.00306943 19.2901 0.162808 19.2403L9.61781 16.7009L23.2861 30.3768Z" fill="#00B37E"/>
<path id="Vector_3" d="M28.1954 12.0538L23.2855 30.3768L9.61719 16.7009L27.93 11.7882C28.0959 11.7384 28.2452 11.8878 28.1954 12.0538Z" fill="#00B37E"/>
</g>
</g>
</g>
</g>
</svg>
